<svg xmlns="http://www.w3.org/2000/svg" width="500" height="500">
  <path fill="#673AB7" d="M234.706 499.531c-97.271-5.346-187.836-72.369-219.788-164.7-32.25-86.205-11.022-188.888 52.181-255.685h133.476v123.578c-39.623 1.252-83.292-6.495-117.43 18.541-52.244 35.394-44.951 127.64 13.593 152.975 39.923 17.65 96.31 11.121 119.704-29.591 20.513-34.27 14.686-74.997 16.03-113.09H336.51v210.67h34.131V79.146h62.272c63.591 67.177 84.584 170.62 51.69 257.145-33.85 95.469-130.72 164.046-232.104 163.306-5.93.09-11.867.242-17.793-.066zM129.274 353.09c-34.29-4.08-55.987-41.237-48.077-73.743 4.876-32.573 39.734-50.845 70.457-47.71 16.307-.133 32.614-.054 48.92-.078-1.347 35.262 6.479 75.033-17.775 104.41-13.07 15.702-34.137 19.774-53.525 17.12zm103.078-212.155v-61.79H336.51v123.579H232.352v-61.79zM102.92 47.548c79.217-58.975 193.65-63.526 277.385-11.21 12.322 7.091 29.646 17.364 6.452 13.973H99.123c1.266-.92 2.53-1.842 3.796-2.763z"/>
</svg>