<?xml version="1.0" standalone="no"?>
<!DOCTYPE svg PUBLIC "-//W3C//DTD SVG 20010904//EN"
 "http://www.w3.org/TR/2001/REC-SVG-20010904/DTD/svg10.dtd">
<svg version="1.0" xmlns="http://www.w3.org/2000/svg"
 width="700.000000pt" height="700.000000pt" viewBox="0 0 700.000000 700.000000"
 preserveAspectRatio="xMidYMid meet">
<metadata>
Created by potrace 1.11, written by Peter Selinger 2001-2013
</metadata>
<g transform="translate(0.000000,700.000000) scale(0.100000,-0.100000)"
fill="#000000" stroke="none">
<path d="M3179 6985 c-241 -20 -578 -92 -799 -171 -120 -43 -229 -84 -267
-101 -77 -34 -339 -166 -365 -184 -14 -11 -29 -19 -33 -19 -7 0 -201 -128
-280 -184 l-50 -36 2115 0 c2112 0 2115 0 2090 20 -14 11 -68 49 -120 83 -436
290 -849 457 -1378 557 -246 46 -602 60 -913 35z"/>
<path d="M853 5787 c-243 -284 -411 -551 -566 -900 -17 -38 -58 -145 -101
-267 -46 -128 -100 -338 -135 -525 -64 -339 -64 -856 -1 -1190 39 -203 92
-410 135 -525 14 -36 25 -70 25 -76 0 -8 29 -80 79 -199 72 -170 283 -541 373
-656 15 -19 44 -57 65 -85 61 -82 103 -131 188 -223 117 -126 129 -137 326
-317 129 -118 431 -319 644 -430 363 -189 699 -296 1137 -365 167 -26 528 -36
748 -20 349 24 747 119 1080 257 75 32 340 163 415 206 391 227 769 565 1046
938 184 246 354 558 468 855 61 159 134 422 165 595 47 259 50 297 50 635 1
337 -3 389 -49 635 -100 539 -321 1040 -656 1488 -45 59 -86 112 -92 117 -7 6
-41 43 -76 83 l-63 72 -434 0 -434 0 0 -2540 0 -2540 -235 0 -235 0 -2 1472
-3 1473 -732 3 -733 2 0 -337 c-1 -657 -29 -850 -169 -1148 -157 -336 -457
-559 -831 -620 -126 -20 -423 -20 -548 0 -393 64 -724 301 -891 641 -207 418
-168 983 93 1344 159 221 443 400 742 469 164 38 214 41 692 41 l472 0 0 870
0 870 -935 0 -934 0 -88 -103z"/>
<path d="M3252 5023 l3 -868 730 0 730 0 0 865 0 865 -733 3 -732 2 2 -867z"/>
<path d="M1891 3749 c-330 -38 -616 -246 -715 -521 -91 -252 -69 -570 55 -780
96 -162 232 -280 399 -346 119 -46 178 -56 340 -56 133 0 166 3 235 23 124 36
216 86 301 163 119 108 224 301 263 483 6 28 16 73 22 100 7 30 13 225 16 498
l5 447 -423 -1 c-233 -1 -457 -5 -498 -10z"/>
</g>
</svg>
