<?xml version="1.0" standalone="no"?>
<!DOCTYPE svg PUBLIC "-//W3C//DTD SVG 20010904//EN"
 "http://www.w3.org/TR/2001/REC-SVG-20010904/DTD/svg10.dtd">
<svg version="1.0" xmlns="http://www.w3.org/2000/svg"
 width="700.000000pt" height="700.000000pt" viewBox="0 0 700.000000 700.000000"
 preserveAspectRatio="xMidYMid meet">
<metadata>
Created by potrace 1.11, written by Peter Selinger 2001-2013
</metadata>
<g transform="translate(0.000000,700.000000) scale(0.100000,-0.100000)"
fill="#000000" stroke="none">
<path d="M3298 6995 c-1 -1 -46 -5 -99 -9 -53 -4 -104 -8 -115 -10 -10 -2 -46
-7 -79 -11 -32 -4 -68 -9 -80 -11 -11 -2 -47 -9 -80 -15 -33 -6 -71 -13 -84
-15 -59 -11 -295 -76 -380 -104 -286 -95 -540 -218 -796 -386 -119 -77 -180
-123 -178 -131 2 -4 922 -8 2045 -8 1124 -1 2048 -3 2053 -4 6 -2 22 -3 38 -2
34 1 36 29 5 58 -25 22 -139 97 -205 134 -23 13 -86 50 -140 81 -253 145 -618
288 -878 343 -43 10 -121 26 -145 30 -14 3 -36 7 -50 10 -52 10 -106 18 -215
31 -27 3 -68 8 -90 11 -46 5 -521 13 -527 8z"/>
<path d="M1075 5892 l-140 -3 -29 -32 c-452 -494 -772 -1174 -866 -1842 -6
-44 -13 -93 -15 -110 -21 -144 -27 -555 -12 -725 13 -144 37 -294 72 -450 29
-132 119 -423 155 -505 5 -11 26 -60 46 -110 67 -161 163 -341 277 -519 144
-228 415 -537 642 -732 265 -229 604 -443 900 -569 50 -21 105 -44 123 -52
112 -49 424 -143 557 -169 11 -2 43 -8 70 -14 62 -12 95 -17 154 -26 25 -3 57
-7 70 -10 149 -23 691 -23 821 0 14 3 48 7 75 11 552 69 1132 307 1605 658
334 249 676 609 865 913 289 465 448 900 529 1454 28 188 28 624 1 840 -2 19
-7 58 -11 85 -5 44 -22 143 -39 230 -19 98 -72 290 -115 417 -155 459 -380
845 -712 1221 l-33 37 -305 1 c-168 0 -365 0 -437 -1 l-133 0 0 -2540 0 -2540
-240 0 -240 0 0 1475 0 1474 -727 -2 -728 -2 -2 -110 c-1 -60 -4 -256 -7 -435
-2 -179 -6 -336 -9 -350 -3 -14 -8 -49 -11 -77 -43 -387 -218 -729 -466 -911
-111 -81 -309 -175 -415 -196 -16 -3 -66 -13 -110 -22 -90 -18 -339 -24 -450
-11 -186 22 -421 100 -565 189 -99 60 -255 210 -319 306 -89 132 -165 310
-195 457 -24 119 -29 166 -30 295 0 114 3 159 20 275 11 68 72 246 115 330
161 315 458 535 841 621 51 12 65 14 107 19 25 3 55 7 66 9 72 14 269 20 602
18 l383 -2 0 865 0 865 -72 0 c-40 0 -399 1 -798 3 -399 1 -788 1 -865 -1z"/>
<path d="M3274 5892 l-21 -3 -1 -863 0 -863 729 0 729 0 0 863 0 864 -22 0
c-256 3 -1399 4 -1414 2z"/>
<path d="M1999 3766 c-2 -2 -31 -6 -64 -9 -222 -22 -418 -108 -571 -250 -72
-67 -154 -178 -169 -227 -4 -14 -11 -29 -15 -35 -9 -12 -35 -105 -45 -160 -4
-22 -9 -51 -12 -65 -9 -44 -10 -182 -2 -224 4 -23 10 -58 13 -79 23 -145 138
-353 257 -462 157 -145 331 -206 579 -206 190 1 347 49 480 146 158 116 285
348 329 601 5 33 13 75 17 94 4 19 8 222 9 451 l3 417 -393 0 c-216 0 -397 2
-403 6 -5 3 -11 4 -13 2z"/>
</g>
</svg>
